<?xml version="1.0" encoding="UTF-8" standalone="no"?>
<!-- Created with Inkscape (http://www.inkscape.org/) -->

<svg
   width="2560"
   height="1440"
   viewBox="0 0 677.33333 381"
   version="1.1"
   id="svg1"
   xml:space="preserve"
   sodipodi:docname="nanoplan_bkgd_bt_rt_corner.svg"
   inkscape:version="1.4.4 (dcaf3e7, 2026-05-05)"
   xmlns:inkscape="http://www.inkscape.org/namespaces/inkscape"
   xmlns:sodipodi="http://sodipodi.sourceforge.net/DTD/sodipodi-0.dtd"
   xmlns="http://www.w3.org/2000/svg"
   xmlns:svg="http://www.w3.org/2000/svg"><sodipodi:namedview
     id="namedview1"
     pagecolor="#ffffff"
     bordercolor="#000000"
     borderopacity="0.25"
     inkscape:showpageshadow="2"
     inkscape:pageopacity="0.0"
     inkscape:pagecheckerboard="0"
     inkscape:deskcolor="#d1d1d1"
     inkscape:zoom="0.39627443"
     inkscape:cx="1173.4292"
     inkscape:cy="609.42616"
     inkscape:window-width="1920"
     inkscape:window-height="1009"
     inkscape:window-x="-8"
     inkscape:window-y="-8"
     inkscape:window-maximized="1"
     inkscape:current-layer="svg1"
     showgrid="false"><inkscape:grid
       id="grid1"
       units="px"
       originx="0"
       originy="0"
       spacingx="2.6458333"
       spacingy="2.6458333"
       empcolor="#0099e5"
       empopacity="0.30196078"
       color="#0099e5"
       opacity="0.14901961"
       empspacing="4"
       enabled="true"
       visible="false" /></sodipodi:namedview><defs
     id="defs1" /><path
     style="display:inline;fill:#666666;fill-opacity:1;stroke-width:0.264583"
     d="m 243.41666,370.41666 21.16667,-21.16667 h 79.37499 l 37.04167,-37.04167 h 47.625 l 79.375,-79.37499 h 142.87499 l 26.45834,-26.45834 -10e-6,15.875 -21.16666,21.16667 h -142.875 l -79.375,79.375 -47.62499,0 -42.33334,42.33333 h -42.33333 l -5.29166,5.29167 z"
     id="path2"
     sodipodi:nodetypes="ccccccccccccccccc" /><path
     style="display:inline;fill:#abb4c1;fill-opacity:1;stroke-width:0.264583"
     d="m 301.62499,380.99999 5.29167,-5.29167 h 42.33333 l 42.33333,-42.33333 47.625,0 79.375,-79.375 h 142.875 l 15.87499,-15.875 0.0763,143.0618 z"
     id="path3"
     sodipodi:nodetypes="cccccccccc" /><path
     style="display:inline;fill:#ff6900;fill-opacity:1;stroke-width:0.264583"
     d="m 375.70832,301.62499 47.625,0 68.79167,-68.79166 h 7.9375 l -74.08334,74.08333 -47.62499,0 -42.33335,42.3333 -7.93749,3e-5 z"
     id="path4"
     sodipodi:nodetypes="ccccccccc" /><path
     style="display:inline;fill:#abb4c1;fill-opacity:1;stroke-width:0.264583"
     d="m 539.74999,232.83333 31.75,-31.75 97.89582,0 7.9375,-7.9375 10e-6,13.22916 -26.45834,26.45834 z"
     id="path5"
     sodipodi:nodetypes="ccccccc" /><path
     style="display:inline;fill:#ff6900;fill-opacity:1;stroke-width:0.264583"
     d="m 523.87499,232.83333 42.33333,-42.33334 h 97.89583 l 13.22917,-13.22916 v 7.9375 l -10.58334,10.58333 h -97.89583 l -37.04166,37.04167 z"
     id="path6" /><path
     style="display:inline;fill:#ff6900;fill-opacity:1;stroke-width:0.264583"
     d="m 219.60416,370.41665 42.33333,-42.33333 23.8125,0 -42.33333,42.33334 z"
     id="path1"
     sodipodi:nodetypes="ccccc" /><path
     style="display:inline;fill:#ff6900;fill-opacity:1;stroke-width:0.264583"
     d="m 272.52083,317.49999 84.66666,-84.66666 23.8125,0 -84.66666,84.66666 z"
     id="path7"
     sodipodi:nodetypes="ccccc" /><path
     style="display:inline;fill:#ff8700;fill-opacity:1;stroke-width:0.264583"
     d="m 362.47916,227.54166 5.29166,-5.29167 23.8125,0 -5.29166,5.29167 z"
     id="path8"
     sodipodi:nodetypes="ccccc" /><path
     style="display:inline;fill:#ffa000;fill-opacity:1;stroke-width:0.264583"
     d="m 373.06249,216.95833 5.29167,-5.29167 23.8125,0 -5.29167,5.29167 z"
     id="path9"
     sodipodi:nodetypes="ccccc" /><path
     style="display:inline;fill:#ffbe00;fill-opacity:1;stroke-width:0.264583"
     d="m 383.64582,206.37499 5.29167,-5.29166 23.8125,0 -5.29167,5.29166 z"
     id="path10"
     sodipodi:nodetypes="ccccc" /><path
     style="display:inline;fill:#ffbe00;fill-opacity:1;stroke-width:0.264583"
     d="m 463.02082,127 5.29167,-5.29167 23.8125,0 L 486.83332,127 Z"
     id="path11"
     sodipodi:nodetypes="ccccc" /><path
     style="display:inline;fill:#ffa000;fill-opacity:1;stroke-width:0.264583"
     d="m 473.60415,116.41666 5.29167,-5.29166 23.8125,0 -5.29167,5.29166 z"
     id="path12"
     sodipodi:nodetypes="ccccc" /><path
     style="display:inline;fill:#ff8700;fill-opacity:1;stroke-width:0.264583"
     d="m 484.18749,105.83333 5.29166,-5.29167 23.8125,0 -5.29166,5.29167 z"
     id="path13"
     sodipodi:nodetypes="ccccc" /><path
     style="display:inline;fill:#ff6900;fill-opacity:1;stroke-width:0.264583"
     d="M 494.77082,95.249997 590.02082,0 h 23.8125 l -95.25,95.249997 z"
     id="path14"
     sodipodi:nodetypes="ccccc" /><path
     style="display:inline;fill:#ffbe00;fill-opacity:1;stroke-width:0.264583"
     d="M 304.27082,349.24999 653.52082,0 h 15.87499 L 320.14582,349.24999 Z"
     id="path15"
     sodipodi:nodetypes="ccccc" /><path
     style="display:inline;fill:#abb4c1;fill-opacity:1;stroke-width:0.264583"
     d="m 396.87499,296.33332 280.45832,-280.458321 0,23.8125 -256.64582,256.645821 z"
     id="path16"
     sodipodi:nodetypes="ccccc" /></svg>
