<?xml version="1.0" encoding="UTF-8" standalone="no"?>
<!-- Created with Inkscape (http://www.inkscape.org/) -->

<svg
   width="2560"
   height="1440"
   viewBox="0 0 677.33333 381"
   version="1.1"
   id="svg1"
   xml:space="preserve"
   sodipodi:docname="nanoplan_bkgd_bt_rt_corner.svg"
   inkscape:version="1.4.4 (dcaf3e7, 2026-05-05)"
   xmlns:inkscape="http://www.inkscape.org/namespaces/inkscape"
   xmlns:sodipodi="http://sodipodi.sourceforge.net/DTD/sodipodi-0.dtd"
   xmlns="http://www.w3.org/2000/svg"
   xmlns:svg="http://www.w3.org/2000/svg"><sodipodi:namedview
     id="namedview1"
     pagecolor="#ffffff"
     bordercolor="#000000"
     borderopacity="0.25"
     inkscape:showpageshadow="2"
     inkscape:pageopacity="0.0"
     inkscape:pagecheckerboard="0"
     inkscape:deskcolor="#d1d1d1"
     inkscape:zoom="0.39627443"
     inkscape:cx="1317.269"
     inkscape:cy="632.13769"
     inkscape:window-width="1920"
     inkscape:window-height="1009"
     inkscape:window-x="885"
     inkscape:window-y="2152"
     inkscape:window-maximized="1"
     inkscape:current-layer="svg1" /><defs
     id="defs1" /><path
     style="display:inline;fill:#abb4c1;fill-opacity:1;stroke-width:0.264583"
     d="m 243.41666,370.41666 21.16667,-21.16667 h 79.37499 l 37.04167,-37.04167 h 47.625 l 79.375,-79.37499 h 142.87499 l 26.45834,-26.45834 v 10.58334 l -26.45834,26.45833 H 507.99999 l -74.08333,74.08333 h -42.33334 l -47.625,47.625 h -42.33333 l -5.29166,5.29167 z"
     id="path2" /><path
     style="display:inline;fill:#abb4c1;fill-opacity:1;stroke-width:0.264583"
     d="m 301.62499,380.99999 5.29167,-5.29167 h 42.33333 l 47.625,-47.625 h 42.33333 l 74.08333,-74.08333 h 142.875 l 21.16667,-21.16666 0.0763,148.35346 z"
     id="path3" /><path
     style="display:inline;fill:#666666;fill-opacity:1;stroke-width:0.264583"
     d="m 375.70832,306.91666 h 44.97917 l 74.08333,-74.08333 h 5.29167 l -76.72917,76.72916 -44.97916,-3e-5 -39.6875,39.6875 h -5.29167 z"
     id="path4" /><path
     style="display:inline;fill:#666666;fill-opacity:1;stroke-width:0.264583"
     d="m 539.74999,232.83333 31.75,-31.75 h 95.24999 l 10.58334,-10.58334 v 15.875 l -26.45834,26.45834 z"
     id="path5" /><path
     style="display:inline;fill:#666666;fill-opacity:1;stroke-width:0.264583"
     d="m 523.87499,232.83333 42.33333,-42.33334 h 97.89583 l 13.22917,-13.22916 v 7.9375 l -10.58334,10.58333 h -97.89583 l -37.04166,37.04167 z"
     id="path6" /><g
     id="g1"
     style="fill:#666666;fill-opacity:1"><path
       style="display:inline;fill:#666666;fill-opacity:1;stroke-width:0.264583"
       d="m 222.24999,370.41666 42.33334,-42.33334 h 21.16666 l -42.33333,42.33334 z"
       id="path1" /><path
       style="display:inline;fill:#666666;fill-opacity:1;stroke-width:0.264583"
       d="m 275.16666,317.49999 84.66666,-84.66666 h 21.16667 l -84.66666,84.66666 z"
       id="path7" /><path
       style="display:inline;fill:#666666;fill-opacity:1;stroke-width:0.264583"
       d="m 365.12499,227.54166 5.29167,-5.29167 h 21.16666 l -5.29166,5.29167 z"
       id="path8" /><path
       style="display:inline;fill:#666666;fill-opacity:1;stroke-width:0.264583"
       d="m 375.70832,216.95833 5.29167,-5.29167 h 21.16667 l -5.29167,5.29167 z"
       id="path9" /><path
       style="display:inline;fill:#666666;fill-opacity:1;stroke-width:0.264583"
       d="m 386.29166,206.37499 5.29166,-5.29166 h 21.16667 l -5.29167,5.29166 z"
       id="path10" /><path
       style="display:inline;fill:#666666;fill-opacity:1;stroke-width:0.264583"
       d="m 465.66665,127 5.29167,-5.29167 h 21.16667 L 486.83332,127 Z"
       id="path11" /><path
       style="display:inline;fill:#666666;fill-opacity:1;stroke-width:0.264583"
       d="m 476.24999,116.41666 5.29166,-5.29166 h 21.16667 l -5.29167,5.29166 z"
       id="path12" /><path
       style="display:inline;fill:#666666;fill-opacity:1;stroke-width:0.264583"
       d="m 486.83332,105.83333 5.29167,-5.29167 h 21.16666 l -5.29166,5.29167 z"
       id="path13" /><path
       style="display:inline;fill:#666666;fill-opacity:1;stroke-width:0.264583"
       d="M 497.41665,95.249997 592.66665,0 h 21.16667 l -95.25,95.249997 z"
       id="path14" /></g><path
     style="display:inline;fill:#ff6a06;fill-opacity:1;stroke-width:0.264583"
     d="M 312.20833,349.24999 661.45832,0 h 15.875 L 328.08333,349.24999 Z"
     id="path15" /><path
     style="display:inline;fill:#abb4c1;fill-opacity:1;stroke-width:0.264583"
     d="M 388.93749,304.27082 677.33332,15.875 V 37.041666 L 410.10416,304.27082 Z"
     id="path16" /></svg>
