<?xml version="1.0" encoding="UTF-8" standalone="no"?>
<!-- Created with Inkscape (http://www.inkscape.org/) -->

<svg
   width="146.65262mm"
   height="23.909071mm"
   viewBox="0 0 146.65262 23.909071"
   version="1.1"
   id="svg1"
   xml:space="preserve"
   inkscape:version="1.4.4 (dcaf3e7, 2026-05-05)"
   sodipodi:docname="drawing.svg"
   xmlns:inkscape="http://www.inkscape.org/namespaces/inkscape"
   xmlns:sodipodi="http://sodipodi.sourceforge.net/DTD/sodipodi-0.dtd"
   xmlns="http://www.w3.org/2000/svg"
   xmlns:svg="http://www.w3.org/2000/svg"><sodipodi:namedview
     id="namedview1"
     pagecolor="#ffffff"
     bordercolor="#000000"
     borderopacity="0.25"
     inkscape:showpageshadow="2"
     inkscape:pageopacity="0.0"
     inkscape:pagecheckerboard="0"
     inkscape:deskcolor="#d1d1d1"
     inkscape:document-units="mm"
     inkscape:zoom="1.4378367"
     inkscape:cx="214.90619"
     inkscape:cy="152.6599"
     inkscape:window-width="2560"
     inkscape:window-height="1369"
     inkscape:window-x="-8"
     inkscape:window-y="-8"
     inkscape:window-maximized="1"
     inkscape:current-layer="layer2" /><defs
     id="defs1" /><g
     inkscape:groupmode="layer"
     id="layer2"
     inkscape:label="Layer 2"
     style="display:inline"
     transform="translate(-20.562736,-12.556403)"><path
       style="display:inline;fill:#ff6a06;stroke-width:0.264583;fill-opacity:1"
       d="M 20.562736,32.455621 V 16.573663 h 4.777776 L 39.519865,27.49703 v 4.958591 H 36.227927 V 29.253234 L 23.803144,19.765977 v 12.689644 z"
       id="path1"
       sodipodi:nodetypes="cccccccccc" /><path
       id="path2"
       style="display:inline;fill:#ff6a06;stroke-width:0.264583;fill-opacity:1"
       d="m 28.169,16.574 4.159776,3.191977 H 51.250102 L 41.073979,27.49703 v 4.958591 h 18.92701 V 16.573663 Z m 28.576374,3.191977 v 9.487257 H 44.255697 Z"
       sodipodi:nodetypes="cccccccccccc" /><path
       style="display:inline;fill:#ff6a06;stroke-width:0.264583;fill-opacity:1"
       d="M 61.513359,32.455621 V 16.573663 H 80.445553 V 32.455621 H 77.192599 V 19.765977 H 64.733786 v 12.689644 z"
       id="path3"
       sodipodi:nodetypes="ccccccccc" /><path
       id="path4"
       style="display:inline;fill:#ff6a06;stroke-width:0.264583;fill-opacity:1"
       d="M 82.039437,16.573663 V 32.455621 H 100.84139 V 16.573663 Z m 3.155363,3.192314 h 12.426115 v 9.487257 H 85.1948 Z"
       sodipodi:nodetypes="cccccccccc" /><path
       id="path5"
       style="display:inline;fill:#ff6a06;stroke-width:0.264583;fill-opacity:1"
       d="m 102.50072,16.573663 v 19.891811 h 3.18793 V 32.455621 H 121.4329 V 16.573663 Z m 3.18793,3.192314 h 12.45866 v 9.487257 h -12.45866 z"
       sodipodi:nodetypes="cccccccccccc" /><path
       style="display:inline;fill:#ff6a06;stroke-width:0.264583;fill-opacity:1"
       d="m 122.92913,12.556403 h 3.25296 v 19.899218 h -3.25296 z"
       id="path6"
       sodipodi:nodetypes="ccccc" /><path
       style="display:inline;fill:#ff6a06;stroke-width:0.264583;fill-opacity:1"
       d="M 167.21536,32.455621 V 16.573663 h -4.77777 l -14.17936,10.887075 v 4.994883 h 3.29194 v -3.202387 l 12.42479,-9.487257 v 12.689644 z"
       id="path7"
       sodipodi:nodetypes="cccccccccc" /><path
       id="path8"
       style="display:inline;fill:#ff6a06;stroke-width:0.264583;fill-opacity:1"
       d="m 159.609,16.573663 -4.15968,3.192314 H 136.528 l 10.17612,7.754055 v 4.935589 H 127.77711 V 16.573663 Z m -28.57627,3.192314 v 9.487257 h 12.48967 z"
       sodipodi:nodetypes="cccccccccccc" /></g></svg>
